<?xml version="1.0" encoding="utf-8"?>
<!-- Generator: Adobe Illustrator 21.0.0, SVG Export Plug-In . SVG Version: 6.00 Build 0)  -->
<svg version="1.1" id="Layer_2" xmlns="http://www.w3.org/2000/svg" xmlns:xlink="http://www.w3.org/1999/xlink" x="0px" y="0px"
	 viewBox="0 0 223.7 51.7" style="enable-background:new 0 0 223.7 51.7;" xml:space="preserve">
<style type="text/css">
	.st0{fill:#FEDA31;}
	.st1{fill:#FFFFFF;}
	.st2{fill-rule:evenodd;clip-rule:evenodd;fill:#FFFFFF;}
</style>
<path class="st0" d="M6.2,35.4c-0.2-0.4-0.7-0.5-1-0.2c-0.3,0.2-0.5,0.4-0.7,0.6c-1.9,1.9-3.7,3.3-4.1,6.9C0.1,45.1,0,46.9,0,47.7
	c0,0.3,0.2,0.6,0.5,0.7c1.3,0.5,5,1.8,7.7,2.5c0.4,0.1,0.9-0.2,0.9-0.7c0.1-2.7,0-5.6-0.3-7.9C8.3,39.7,7.3,37.3,6.2,35.4z
	 M44.7,42.6c-0.4-3.6-2.2-5-4.1-6.9c-0.2-0.2-0.4-0.4-0.7-0.6c-0.3-0.3-0.8-0.2-1,0.2c-1.1,2-2.1,4.4-2.5,7
	c-0.4,2.3-0.4,5.2-0.3,7.9c0,0.5,0.4,0.8,0.9,0.7c2.8-0.7,6.4-2,7.7-2.5c0.3-0.1,0.5-0.4,0.5-0.7C45,46.9,45,45.1,44.7,42.6z
	 M33.5,31.6c-0.8-0.4-1.5-0.7-2.1-1c-0.7-0.3-1.4,0.1-1.6,0.8c-0.3,1.2-1,3-2.7,4.5c-1.3,1.1-2.9,2.4-3.8,3.2c-0.4,0.3-1,0.3-1.5,0
	c-0.9-0.8-2.5-2.1-3.8-3.2c-1.7-1.5-2.4-3.3-2.7-4.5c-0.2-0.7-0.9-1.1-1.6-0.8c-0.6,0.3-1.3,0.6-2.1,1c-0.6,0.3-0.8,1-0.5,1.6
	c1.3,2.4,2.4,5.2,2.9,8.3c0.4,2.6,0.5,5.9,0.4,8.9c0,0.6,0.5,1.2,1.1,1.2c3.3,0.1,6.5,0.1,7.1,0.1v0c0,0,0,0,0,0c0,0,0,0,0,0v0
	c0.5,0,3.8,0,7.1-0.1c0.6,0,1.1-0.6,1.1-1.2c-0.1-3,0-6.2,0.4-8.9c0.5-3.1,1.6-5.9,2.9-8.3C34.4,32.6,34.1,31.9,33.5,31.6z
	 M13.9,16.2c1.7-2.7,5-3.5,8.6-3.5h0c3.6,0,6.8,0.8,8.5,3.3c0.5-0.3,1-0.6,1.5-0.9V7.5c0-3.9-3.2-7.1-7.1-7.1h-2.2
	C23.1,0.2,22.8,0,22.5,0c-0.3,0-0.5,0.2-0.7,0.4h-2.2c-3.9,0-7.1,3.2-7.1,7.1V15c0.4,0.4,0.7,0.7,1.1,1.1
	C13.8,16.1,13.8,16.1,13.9,16.2z M23.3,20.5c0,0.8,0.7,1.5,1.5,1.5h3.4c0.8,0,1.5-0.7,1.5-1.5l0.2-1.9c0-0.8-0.7-1.5-1.5-1.5H16.6
	c-0.8,0-1.5,0.7-1.5,1.5l0.2,1.9c0,0.8,0.7,1.5,1.5,1.5h3.4c0.8,0,1.5-0.7,1.5-1.5l0.4-1.9c0-0.1,0-0.2,0-0.3H23c0,0.1,0,0.2,0,0.3
	L23.3,20.5z M25.1,17.9h2.8c0.7,0,1.3,0.4,1.3,1L29,20.1c0,0.5-0.6,1-1.3,1h-2.3c-0.7,0-1.3-0.4-1.3-1l-0.4-1.2
	C23.8,18.4,24.4,17.9,25.1,17.9z M20.9,20.1c0,0.5-0.6,1-1.3,1h-2.3c-0.7,0-1.3-0.4-1.3-1L16,18.9c0-0.5,0.6-1,1.3-1H20
	c0.7,0,1.3,0.4,1.3,1L20.9,20.1z"/>
<g>
	<path class="st1" d="M64.7,10.7l-0.1,0.3c-0.3,1.5-1.3,2.5-2,2.8c0.5,0.3,1.1,1.2,1.1,2.4c0,0.2,0,0.3,0,0.5l0,0.3
		c-0.6,3.8-3.4,4.6-7.3,4.6c-1,0-2.9-0.1-3.8-0.2c-0.7-0.1-1.1-0.3-1.1-1c0-0.2,0-0.3,0.1-0.5l2.1-11.7c0.2-1.1,0.6-1.4,1.5-1.5
		C55.9,6.6,58,6.5,59,6.5c3.4,0,5.8,0.9,5.8,3.4C64.8,10.2,64.7,10.4,64.7,10.7z M58.3,15.3h-1.9l-0.5,3.1h1.6
		c1.6,0,2.1-0.6,2.3-1.4l0-0.2c0-0.1,0-0.2,0-0.4C59.8,15.8,59.4,15.3,58.3,15.3z M58.9,9.8c-0.2,0-1.4,0-1.6,0l-0.5,2.8h1.9
		c1.3,0,1.8-0.6,1.9-1.3l0-0.3c0-0.1,0-0.2,0-0.2C60.7,10.1,60.3,9.8,58.9,9.8z"/>
	<path class="st1" d="M78.4,13.1l-0.4,2.1c-0.9,4.9-3.6,6.6-7.3,6.6c-2.8,0-5.1-1.6-5.1-5c0-0.5,0.1-1,0.2-1.6l0.4-2.1
		C67.1,8,70,6.5,73.5,6.5c2.8,0,5.1,1.5,5.1,4.9C78.6,11.9,78.6,12.5,78.4,13.1z M72.8,10c-1.4,0-2.1,0.9-2.5,3l-0.4,2.1
		c-0.1,0.5-0.1,0.9-0.1,1.2c0,1.2,0.6,1.8,1.6,1.8c1.4,0,2.1-0.9,2.5-3l0.4-2.1c0.1-0.5,0.1-0.9,0.1-1.2C74.5,10.6,73.9,10,72.8,10z
		"/>
	<path class="st1" d="M92.5,10.7l-0.1,0.3c-0.3,1.5-1.3,2.5-2,2.8c0.5,0.3,1.1,1.2,1.1,2.4c0,0.2,0,0.3,0,0.5l0,0.3
		c-0.6,3.8-3.4,4.6-7.3,4.6c-1,0-2.9-0.1-3.8-0.2c-0.7-0.1-1.1-0.3-1.1-1c0-0.2,0-0.3,0.1-0.5l2.1-11.7c0.2-1.1,0.6-1.4,1.5-1.5
		c0.9-0.1,2.9-0.2,3.9-0.2c3.4,0,5.8,0.9,5.8,3.4C92.5,10.2,92.5,10.4,92.5,10.7z M86,15.3h-1.9l-0.5,3.1h1.6c1.6,0,2.1-0.6,2.3-1.4
		l0-0.2c0-0.1,0-0.2,0-0.4C87.6,15.8,87.1,15.3,86,15.3z M86.7,9.8c-0.2,0-1.4,0-1.6,0l-0.5,2.8h1.9c1.3,0,1.8-0.6,1.9-1.3l0-0.3
		c0-0.1,0-0.2,0-0.2C88.5,10.1,88.1,9.8,86.7,9.8z"/>
	<path class="st1" d="M109.2,7.3l-0.4,2.5c0,0.2-0.2,0.4-0.4,0.4c0,0,0,0,0,0c-0.8-0.1-3.1-0.3-4.5-0.3c-0.6,0-1.1,0.2-1.1,0.8
		c0,0.3,0.2,0.5,0.9,0.9l2.4,1.4c1.4,0.8,2,1.9,2,3.3c0,3.7-3.1,5.3-6.5,5.3c-1.6,0-2.9-0.2-3.9-0.5c-0.2-0.1-0.3-0.2-0.3-0.3
		c0,0,0,0,0-0.1l0.4-2.5c0-0.2,0.2-0.4,0.5-0.4c0,0,0,0,0,0c0.8,0.1,2.9,0.3,4,0.3c0.8,0,1.5-0.3,1.5-1.2c0-0.3-0.2-0.5-0.8-0.9
		l-2.6-1.7c-1.2-0.8-1.7-2.1-1.7-3.3c0-3.6,2.8-4.7,6-4.7c1.6,0,3.7,0.3,4.4,0.5C109,7,109.2,7.1,109.2,7.3
		C109.2,7.3,109.2,7.3,109.2,7.3z"/>
	<path class="st0" d="M128,7l-2.5,14.1c0,0.2-0.3,0.4-0.5,0.4h-2c-0.2,0-0.3-0.1-0.3-0.3c0,0,0-0.1,0-0.1l1.1-6.1h-5.7l-1.1,6.1
		c0,0.2-0.3,0.4-0.5,0.4h-2c-0.2,0-0.3-0.1-0.3-0.3c0,0,0-0.1,0-0.1L116.7,7c0-0.2,0.2-0.4,0.5-0.4h2c0.2,0,0.3,0.1,0.3,0.3
		c0,0,0,0,0,0.1l-1,5.5h5.7l1-5.5c0-0.2,0.2-0.4,0.5-0.4h2C127.8,6.7,128,6.8,128,7C128,7,128,7,128,7z"/>
	<path class="st0" d="M139.1,21.5h-2c-0.2,0-0.3-0.2-0.3-0.3l-0.2-3.8h-4.6l-1.6,3.8c-0.1,0.2-0.3,0.3-0.4,0.3h-2.2
		c-0.2,0-0.3-0.1-0.3-0.3c0-0.1,0-0.1,0-0.2l5.5-12.5c0.8-1.9,2-2,3.1-2c1,0,2.3,0.4,2.4,2l1.1,12.5c0,0,0,0,0,0
		C139.5,21.3,139.3,21.5,139.1,21.5z M135.9,9.2c0-0.2-0.1-0.3-0.3-0.3c-0.2,0-0.3,0.1-0.4,0.3l-2.5,5.9h3.5L135.9,9.2z"/>
	<path class="st0" d="M155.1,7l-2.4,13.7c-0.1,0.4-0.5,0.8-0.9,0.8h-1.9c-0.5,0-0.9,0-1.1-0.7l-2.9-9.7c0-0.1-0.1-0.2-0.1-0.2
		c-0.1,0-0.1,0-0.1,0.2l-1.8,10.1c0,0.2-0.2,0.4-0.5,0.4h-1.7c-0.2,0-0.3-0.2-0.3-0.3c0,0,0,0,0-0.1l2.4-13.7
		c0.1-0.4,0.5-0.8,0.9-0.8h2c0.4,0,0.6,0.1,0.8,0.6l3,10.3c0,0.1,0.1,0.2,0.1,0.2c0,0,0.1-0.1,0.1-0.2L152.6,7
		c0-0.2,0.2-0.4,0.4-0.4h1.7C155,6.7,155.1,6.8,155.1,7C155.1,7,155.1,7,155.1,7z"/>
	<path class="st0" d="M167.8,12.6l-0.5,2.9c-0.7,4.1-3.1,6.1-7.4,6.1c-1.4,0-3.3-0.1-3.9-0.2c-0.3,0-0.4-0.2-0.4-0.5
		c0-0.1,0-0.1,0-0.2L158,7.4c0.1-0.4,0.3-0.6,0.6-0.6c0.6-0.1,2.6-0.2,4-0.2c3.4,0,5.3,1.8,5.3,4.8C168,11.7,167.9,12.1,167.8,12.6z
		 M162.2,8.8c-0.7,0-1.3,0-1.7,0.1l-1.8,10.4c0.4,0,0.9,0.1,1.7,0.1c2,0,3.7-0.9,4.2-3.8l0.5-2.9c0.1-0.5,0.1-0.9,0.1-1.3
		C165.2,9.3,164,8.8,162.2,8.8z"/>
	<path class="st0" d="M181.7,7.1l-4.3,6.9c-0.5,0.9-1,1.3-1.5,1.5l-1,5.6c0,0.2-0.2,0.4-0.5,0.4h-2c-0.2,0-0.3-0.1-0.3-0.3
		c0,0,0-0.1,0-0.1l1-5.6c-0.4-0.2-0.7-0.6-1-1.5l-1.8-6.9c0,0,0-0.1,0-0.1c0-0.2,0.2-0.4,0.4-0.4h2.1c0.2,0,0.3,0.1,0.4,0.3l1.4,6
		c0.1,0.3,0.1,0.4,0.3,0.4c0.2,0,0.2,0,0.4-0.4l3.4-6c0.1-0.2,0.3-0.3,0.5-0.3h2.2c0.2,0,0.3,0.1,0.3,0.3C181.8,7,181.7,7,181.7,7.1
		z"/>
	<path class="st0" d="M196.5,7.5l-2.4,13.8c0,0.2-0.2,0.3-0.4,0.3h-2c-0.2,0-0.2-0.1-0.2-0.3c0,0,0-0.1,0-0.1l1.6-9.3
		c0,0,0-0.1,0-0.1c0-0.1,0-0.1,0-0.1c0,0-0.1,0.1-0.1,0.1l-2.6,3.8c-0.1,0.2-0.4,0.3-0.7,0.3h-2c-0.3,0-0.5-0.1-0.6-0.3l-1.3-3.8
		c0-0.1,0-0.1-0.1-0.1c0,0-0.1,0.1-0.1,0.2l-1.6,9.3c0,0.2-0.2,0.4-0.4,0.4h-2c-0.2,0-0.3-0.1-0.3-0.2c0,0,0,0,0-0.1l2.4-13.8
		c0.1-0.4,0.5-0.8,0.9-0.8h1.5c0.3,0,0.6,0.2,0.7,0.5l1.9,6.1c0.1,0.2,0.1,0.3,0.2,0.3s0.2-0.1,0.3-0.3l4.1-6.1
		c0.2-0.3,0.5-0.5,0.8-0.5h1.7c0.4,0,0.7,0.3,0.7,0.7C196.5,7.4,196.5,7.4,196.5,7.5z"/>
	<path class="st0" d="M207.7,21.5h-2c-0.2,0-0.3-0.2-0.3-0.3l-0.2-3.8h-4.6l-1.6,3.8c-0.1,0.2-0.3,0.3-0.4,0.3h-2.2
		c-0.2,0-0.3-0.1-0.3-0.3c0-0.1,0-0.1,0-0.2l5.5-12.5c0.8-1.9,2-2,3.1-2c1,0,2.3,0.4,2.4,2l1.1,12.5c0,0,0,0,0,0
		C208.1,21.3,207.9,21.5,207.7,21.5z M204.6,9.2c0-0.2-0.1-0.3-0.3-0.3c-0.2,0-0.3,0.1-0.4,0.3l-2.5,5.9h3.5L204.6,9.2z"/>
	<path class="st0" d="M223.8,7l-2.4,13.7c-0.1,0.4-0.5,0.8-0.9,0.8h-1.9c-0.5,0-0.9,0-1.1-0.7l-2.9-9.7c0-0.1-0.1-0.2-0.1-0.2
		c-0.1,0-0.1,0-0.1,0.2l-1.8,10.1c0,0.2-0.2,0.4-0.5,0.4h-1.7c-0.2,0-0.3-0.2-0.3-0.3c0,0,0,0,0-0.1l2.4-13.7
		c0.1-0.4,0.5-0.8,0.9-0.8h2c0.4,0,0.6,0.1,0.8,0.6l3,10.3c0,0.1,0.1,0.2,0.1,0.2c0,0,0.1-0.1,0.1-0.2L221.3,7
		c0-0.2,0.2-0.4,0.4-0.4h1.7C223.6,6.7,223.8,6.8,223.8,7C223.8,7,223.8,7,223.8,7z"/>
	<path class="st1" d="M62.7,32.2l-0.3,1.5c0,0.2-0.2,0.4-0.4,0.4c0,0,0,0,0,0c-1.3-0.1-2.4-0.2-3.9-0.2c-1.1,0-2.4,0.3-2.4,1.7
		c0,0.5,0.3,0.9,1.3,1.5l2.2,1.3c1.6,1,2.1,2.3,2.1,3.4c0,3.5-2.8,4.8-6,4.8c-1.5,0-2.6-0.1-3.5-0.4c-0.2,0-0.3-0.2-0.3-0.3
		c0,0,0,0,0-0.1l0.3-1.4c0-0.2,0.2-0.4,0.4-0.4c0,0,0,0,0,0c0.8,0.1,2.8,0.2,3.5,0.2c1.4,0,2.6-0.5,2.6-2.1c0-0.5-0.3-1-1.4-1.7
		L54.7,39c-1.4-0.9-1.8-2.3-1.8-3.2c0-3.4,2.9-4.2,5.7-4.2c1.3,0,3.1,0.2,3.8,0.4C62.6,31.9,62.7,32,62.7,32.2
		C62.7,32.2,62.7,32.2,62.7,32.2z"/>
	<path class="st1" d="M74.3,32.2l-0.2,1.3c0,0.2-0.3,0.4-0.5,0.4h-4.1c-1.2,0-1.6,0.4-1.9,1.7l-0.4,2.2h5.4c0.2,0,0.3,0.2,0.3,0.3
		c0,0,0,0,0,0v0l-0.3,1.4c0,0.2-0.3,0.4-0.5,0.4h-5.4l-0.4,2.6c0,0.3-0.1,0.5-0.1,0.7c0,0.8,0.4,1.1,1.3,1.1h4.1
		c0.2,0,0.3,0.1,0.3,0.3c0,0,0,0,0,0.1v0L71.9,46c0,0.3-0.2,0.4-0.5,0.4c-0.7,0.1-1.5,0.3-3.8,0.3c-2.3,0-4-0.9-4-3.2
		c0-0.3,0-0.6,0.1-0.9l1.2-7c0.6-3.6,2.6-4.1,5.3-4.1c2.4,0,3.1,0.2,3.8,0.3c0.2,0,0.3,0.1,0.3,0.3C74.3,32.1,74.3,32.1,74.3,32.2z"
		/>
	<path class="st1" d="M83.2,40.3l2.1,5.8c0,0,0,0.1,0,0.1c0,0.2-0.1,0.3-0.3,0.3h-2.3c-0.2,0-0.3-0.2-0.4-0.4l-1.9-5.3h-0.4
		c-0.5,0-1.1,0-1.8-0.1l-0.9,5.4c0,0.2-0.2,0.4-0.5,0.4h-2c-0.2,0-0.3-0.1-0.3-0.3c0,0,0,0,0-0.1v0L77,32.4c0.1-0.4,0.3-0.5,0.7-0.6
		c1.1-0.2,2.5-0.3,4-0.3c3,0,5.1,1.2,5.1,3.7C86.8,37.5,85.5,39.6,83.2,40.3z M81.3,33.9c-0.4,0-1.4,0-1.8,0.1l-0.8,4.5
		c0.3,0,1.4,0.1,1.8,0.1c2.1,0,3.5-0.8,3.5-3C84,34.3,83,33.9,81.3,33.9z"/>
	<path class="st1" d="M101.2,32.1l-5.5,12.5c-0.8,1.9-2.3,2-3.1,2c-0.9,0-2.3-0.2-2.4-2l-1.1-12.5c0,0,0,0,0,0
		c0-0.2,0.2-0.4,0.4-0.4h2.1c0.2,0,0.3,0.2,0.3,0.3l0.8,12c0,0.2,0.1,0.3,0.3,0.3c0.2,0,0.3-0.1,0.4-0.3l5-12
		c0.1-0.2,0.3-0.3,0.4-0.3h2.2c0.2,0,0.3,0.1,0.3,0.3C101.3,32,101.2,32,101.2,32.1z"/>
	<path class="st1" d="M106,32l-2.5,14.1c0,0.2-0.3,0.4-0.5,0.4h-2c-0.2,0-0.3-0.1-0.3-0.3c0,0,0-0.1,0-0.1l2.5-14.1
		c0-0.2,0.2-0.4,0.5-0.4h2C105.9,31.7,106,31.8,106,32C106,32,106,32,106,32z"/>
	<path class="st1" d="M117.8,32.3l-0.2,1.3c0,0.2-0.2,0.4-0.5,0.4c0,0,0,0,0,0c0,0,0,0,0,0c-0.7-0.1-2-0.2-3.1-0.2
		c-1.7,0-3.1,1-3.6,3.7l-0.5,2.9c-0.1,0.5-0.1,0.9-0.1,1.3c0,1.9,1,2.4,2.4,2.4c1.1,0,2.4-0.1,3.1-0.2h0c0,0,0,0,0,0
		c0.2,0,0.3,0.1,0.3,0.3c0,0,0,0.1,0,0.1l-0.2,1.3c-0.1,0.3-0.2,0.4-0.5,0.5c-0.3,0.1-1.7,0.3-3.2,0.3c-2.1,0-4.7-1.1-4.7-4.7
		c0-0.4,0.1-0.9,0.1-1.5l0.5-2.9c0.9-5.4,4.3-6.1,6.7-6.1c1.5,0,2.8,0.2,3.1,0.3C117.7,31.9,117.8,32,117.8,32.3
		C117.8,32.2,117.8,32.2,117.8,32.3C117.8,32.3,117.8,32.3,117.8,32.3z"/>
	<path class="st1" d="M129.2,32.2l-0.2,1.3c0,0.2-0.3,0.4-0.5,0.4h-4.1c-1.2,0-1.6,0.4-1.9,1.7l-0.4,2.2h5.4c0.2,0,0.3,0.2,0.3,0.3
		c0,0,0,0,0,0v0l-0.3,1.4c0,0.2-0.3,0.4-0.5,0.4h-5.4l-0.4,2.6c0,0.3-0.1,0.5-0.1,0.7c0,0.8,0.4,1.1,1.3,1.1h4.1
		c0.2,0,0.3,0.1,0.3,0.3c0,0,0,0,0,0.1v0l-0.2,1.3c0,0.3-0.2,0.4-0.5,0.4c-0.7,0.1-1.5,0.3-3.8,0.3c-2.3,0-4-0.9-4-3.2
		c0-0.3,0-0.6,0.1-0.9l1.2-7c0.6-3.6,2.6-4.1,5.3-4.1c2.4,0,3.1,0.2,3.8,0.3c0.2,0,0.3,0.1,0.3,0.3
		C129.2,32.1,129.2,32.1,129.2,32.2z"/>
	<path class="st1" d="M140.5,32.2l-0.3,1.5c0,0.2-0.2,0.4-0.4,0.4c0,0,0,0,0,0c-1.3-0.1-2.4-0.2-3.9-0.2c-1.1,0-2.4,0.3-2.4,1.7
		c0,0.5,0.3,0.9,1.3,1.5l2.2,1.3c1.6,1,2.1,2.3,2.1,3.4c0,3.5-2.8,4.8-6,4.8c-1.5,0-2.6-0.1-3.5-0.4c-0.2,0-0.3-0.2-0.3-0.3
		c0,0,0,0,0-0.1l0.3-1.4c0-0.2,0.2-0.4,0.4-0.4c0,0,0,0,0,0c0.8,0.1,2.8,0.2,3.5,0.2c1.4,0,2.6-0.5,2.6-2.1c0-0.5-0.3-1-1.4-1.7
		l-2.4-1.6c-1.4-0.9-1.8-2.3-1.8-3.2c0-3.4,2.9-4.2,5.7-4.2c1.3,0,3.1,0.2,3.8,0.4C140.3,31.9,140.5,32,140.5,32.2
		C140.5,32.2,140.5,32.2,140.5,32.2z"/>
</g>
<path class="st2" d="M97.9,6h-2.9c-0.3,0-0.6,0.3-0.6,0.6v2.9c0,0.6,0.7,0.8,1.1,0.4L98.4,7C98.8,6.6,98.5,6,97.9,6z"/>
</svg>
